HIERARCHY
ROOT Hips
{
	OFFSET 0.000000 0.000000 0.000000
	CHANNELS 6 Xposition Yposition Zposition Xrotation Yrotation Zrotation
	JOINT LeftUpLeg_virtual
	{
		OFFSET 0.000000 0.000000 0.000000
		CHANNELS 3 Xrotation Yrotation Zrotation
		JOINT LeftUpLeg
		{
			OFFSET 15.427100 -6.655098 0.678600
			CHANNELS 3 Xrotation Yrotation Zrotation
			JOINT LeftLeg
			{
				OFFSET 4.081073 -39.591068 13.024000
				CHANNELS 3 Xrotation Yrotation Zrotation
				JOINT LeftFoot
				{
					OFFSET -4.081074 -37.707932 -15.979700
					CHANNELS 3 Xrotation Yrotation Zrotation
					JOINT LeftToeBase
					{
						OFFSET 5.346399 -15.068900 20.645000
						CHANNELS 3 Xrotation Yrotation Zrotation
						JOINT LeftToe_End
						{
							OFFSET 2.754700 0.931300 11.300900
							CHANNELS 3 Xrotation Yrotation Zrotation
							End Site
							{
								OFFSET 0 0 0
							}
						}
					}
				}
			}
		}
	}
	JOINT RightUpLeg_virtual
	{
		OFFSET 0.000000 0.000000 0.000000
		CHANNELS 3 Xrotation Yrotation Zrotation
		JOINT RightUpLeg
		{
			OFFSET -15.569500 -6.655098 0.678600
			CHANNELS 3 Xrotation Yrotation Zrotation
			JOINT RightLeg
			{
				OFFSET -4.081825 -39.591045 13.023800
				CHANNELS 3 Xrotation Yrotation Zrotation
				JOINT RightFoot
				{
					OFFSET 4.081824 -37.707954 -15.979600
					CHANNELS 3 Xrotation Yrotation Zrotation
					JOINT RightToeBase
					{
						OFFSET -5.346400 -15.068900 20.645000
						CHANNELS 3 Xrotation Yrotation Zrotation
						JOINT RightToe_End
						{
							OFFSET -2.754700 0.931300 11.300900
							CHANNELS 3 Xrotation Yrotation Zrotation
							End Site
							{
								OFFSET 0 0 0
							}
						}
					}
				}
			}
		}
	}
	JOINT Spine_virtual
	{
		OFFSET 0.000000 0.000000 0.000000
		CHANNELS 3 Xrotation Yrotation Zrotation
		JOINT Spine
		{
			OFFSET -0.279200 12.230698 -2.892100
			CHANNELS 3 Xrotation Yrotation Zrotation
			JOINT Spine1
			{
				OFFSET -0.232667 10.192268 -1.242267
				CHANNELS 3 Xrotation Yrotation Zrotation
				JOINT Spine1_split
				{
					OFFSET -0.232667 10.192268 -1.242267
					CHANNELS 3 Xrotation Yrotation Zrotation
					JOINT Spine2
					{
						OFFSET -0.232667 10.192268 -1.242267
						CHANNELS 3 Xrotation Yrotation Zrotation
						JOINT Neck_virtual
						{
							OFFSET 0.000000 0.000000 0.000000
							CHANNELS 3 Xrotation Yrotation Zrotation
							JOINT Neck
							{
								OFFSET -0.418800 17.814194 8.416900
								CHANNELS 3 Xrotation Yrotation Zrotation
								JOINT Head
								{
									OFFSET 0.000000 7.031097 3.806800
									CHANNELS 3 Xrotation Yrotation Zrotation
									JOINT HeadTop_End
									{
										OFFSET 0.000000 24.646606 12.978600
										CHANNELS 3 Xrotation Yrotation Zrotation
										End Site
										{
											OFFSET 0 0 0
										}
									}
								}
							}
						}
						JOINT LeftShoulder_virtual
						{
							OFFSET 0.000000 0.000000 0.000000
							CHANNELS 3 Xrotation Yrotation Zrotation
							JOINT LeftShoulder
							{
								OFFSET 8.476499 7.247704 -3.868750
								CHANNELS 3 Xrotation Yrotation Zrotation
								JOINT LeftShoulder_split
								{
									OFFSET 8.476499 7.247704 -3.868750
									CHANNELS 3 Xrotation Yrotation Zrotation
									JOINT LeftArm
									{
										OFFSET 9.308998 -2.777710 0.208600
										CHANNELS 3 Xrotation Yrotation Zrotation
										JOINT LeftForeArm
										{
											OFFSET 29.972298 0.000000 0.000000
											CHANNELS 3 Xrotation Yrotation Zrotation
											JOINT LeftHand
											{
												OFFSET 26.026505 0.000000 0.000000
												CHANNELS 3 Xrotation Yrotation Zrotation
												End Site
												{
													OFFSET 0 0 0
												}
											}
										}
									}
								}
							}
						}
						JOINT RightShoulder_virtual
						{
							OFFSET 0.000000 0.000000 0.000000
							CHANNELS 3 Xrotation Yrotation Zrotation
							JOINT RightShoulder
							{
								OFFSET -7.570500 7.247704 -3.868750
								CHANNELS 3 Xrotation Yrotation Zrotation
								JOINT RightShoulder_split
								{
									OFFSET -7.570500 7.247704 -3.868750
									CHANNELS 3 Xrotation Yrotation Zrotation
									JOINT RightArm
									{
										OFFSET -9.308998 -2.777710 0.208500
										CHANNELS 3 Xrotation Yrotation Zrotation
										JOINT RightForeArm
										{
											OFFSET -29.972300 0.000000 0.000000
											CHANNELS 3 Xrotation Yrotation Zrotation
											JOINT RightHand
											{
												OFFSET -26.026505 0.000000 0.000000
												CHANNELS 3 Xrotation Yrotation Zrotation
												End Site
												{
													OFFSET 0 0 0
												}
											}
										}
									}
								}
							}
						}
					}
				}
			}
		}
	}
}
MOTION
Frames: 7
Frame Time: 0.03333333
18.247383 92.137268 9.414185 0.000000 0.000000 0.000000 0.114810 4.220144 -3.967506 3.205015 11.869868 4.207823 18.023196 -6.602263 4.047724 -23.715061 2.811144 -1.944560 1.780192 -2.761313 -2.041980 0.000000 0.000000 0.000000 -0.046481 4.483038 -3.887993 -31.526808 -0.686405 -1.354172 24.045500 -1.989364 0.148677 2.996381 -0.936934 9.892916 1.530043 2.268327 -19.165337 0.000000 0.000000 0.000000 -0.339995 11.436727 -4.482968 6.356349 -4.842703 2.487279 1.560971 -2.067369 1.824456 0.170349 -0.598398 0.099097 0.000000 0.000000 0.000000 0.765679 -0.557390 2.205909 -8.847022 5.323746 10.548120 1.290396 -7.594194 -1.679670 0.000000 0.000000 0.000000 -0.366593 -1.717049 1.907410 1.789511 0.728710 1.122790 2.628160 -3.529401 -1.948693 -3.144962 -0.148242 -81.732694 14.696825 -31.653241 1.848322 0.000000 0.000000 0.000000 0.369587 -1.879655 1.974664 2.532964 -7.101191 5.010535 -9.438716 0.506581 0.182220 2.482130 11.726764 74.026704 -2.174704 17.117257 6.187383 0.000000 0.000000 0.000000 
18.687546 92.471901 11.647914 0.000000 0.000000 0.000000 0.894015 4.267562 -4.511036 4.302632 12.520739 4.638015 16.755694 -6.659378 4.155392 -23.753281 4.098638 -2.986954 1.490799 -3.037400 -2.591111 0.000000 0.000000 0.000000 1.138877 4.280600 -4.622865 -32.469968 -0.545464 0.093341 18.925423 -1.472718 -1.567616 1.904433 1.556820 10.460932 3.967629 2.078119 -21.281206 0.000000 0.000000 0.000000 0.276915 11.746597 -5.092235 6.052980 -5.085103 2.164825 1.624733 -2.126716 1.893795 0.207403 -0.627631 0.072739 0.000000 0.000000 0.000000 0.533611 -0.585605 2.277939 -8.871944 5.096145 11.036147 2.447330 -7.611943 -1.246016 0.000000 0.000000 0.000000 -0.475364 -1.759811 1.972140 1.913216 0.499637 1.025356 2.475466 -3.413611 -2.117785 -3.194587 -1.400435 -80.676214 14.255605 -32.787282 0.834666 0.000000 0.000000 0.000000 0.280979 -1.880223 2.025784 2.585741 -6.841672 5.886832 -9.879111 0.542049 0.296726 4.216528 11.013439 73.470091 -2.685419 17.643692 7.163878 0.000000 0.000000 0.000000 
18.965260 92.584038 13.994865 0.000000 0.000000 0.000000 1.577779 4.503189 -4.981619 5.328957 13.446852 5.464928 15.740562 -6.403316 3.893303 -23.767320 5.569401 -3.525068 0.943395 -3.399254 -3.036706 0.000000 0.000000 0.000000 2.135339 4.582327 -5.372865 -33.693149 -0.379453 1.012775 14.916498 -1.383218 -2.738394 1.668683 3.028594 10.446368 4.776740 1.984127 -22.570090 0.000000 0.000000 0.000000 0.728854 12.155403 -5.510752 5.977060 -5.594917 1.678111 1.678034 -2.242297 2.034607 0.210631 -0.611763 0.057530 0.000000 0.000000 0.000000 0.359161 -0.650393 2.424864 -8.812628 5.005646 11.568507 3.704518 -7.408777 -1.044373 0.000000 0.000000 0.000000 -0.583351 -1.845324 2.098605 1.974357 0.260451 0.826690 2.370219 -3.307904 -2.152296 -3.351799 -2.636631 -79.816313 14.262837 -33.553161 0.234027 0.000000 0.000000 0.000000 0.166182 -1.927796 2.160796 2.682912 -6.512253 6.748799 -10.261657 0.681673 0.157290 5.831724 10.309699 72.944576 -3.371244 18.606711 8.263251 0.000000 0.000000 0.000000 
19.063738 92.460739 16.471382 0.000000 0.000000 0.000000 2.203614 4.990959 -5.319628 6.451125 14.584368 6.677042 14.857533 -6.184279 3.388881 -23.759151 6.885266 -3.886672 -0.404880 -3.788400 -3.168608 0.000000 0.000000 0.000000 2.907699 5.375507 -5.922349 -35.405798 -0.309202 1.089743 12.501649 -1.682807 -3.303030 2.486891 3.582643 10.348652 4.486128 1.990207 -22.866338 0.000000 0.000000 0.000000 1.169649 12.645334 -5.648703 6.077633 -6.304520 1.078266 1.654644 -2.395589 2.191585 0.187424 -0.604829 0.045020 0.000000 0.000000 0.000000 0.233350 -0.741960 2.590536 -8.651459 5.068094 12.088644 4.927053 -6.927284 -1.181662 0.000000 0.000000 0.000000 -0.745663 -1.956735 2.230602 1.969073 0.068299 0.553239 2.244777 -3.184823 -2.070323 -3.689566 -3.786352 -79.195668 14.797473 -33.805185 0.131813 0.000000 0.000000 0.000000 -0.021915 -2.026685 2.328024 2.810879 -6.166848 7.555300 -10.570498 0.802521 -0.069818 7.193934 9.788558 72.420448 -4.180966 19.949938 9.495724 0.000000 0.000000 0.000000 
18.882698 92.052971 19.096701 0.000000 0.000000 0.000000 2.797593 5.697580 -5.419252 7.621640 15.822562 8.185563 14.139289 -6.593482 2.707884 -23.430482 7.738529 -5.099665 -2.799012 -4.171892 -2.879641 0.000000 0.000000 0.000000 3.379593 6.250872 -6.064755 -37.395374 -0.401570 0.599359 11.535457 -2.282059 -3.339442 3.481910 3.413844 10.107081 3.654572 2.070075 -22.296666 0.000000 0.000000 0.000000 1.562984 13.186220 -5.418184 6.336150 -7.094542 0.466524 1.498828 -2.552259 2.306943 0.146326 -0.578516 0.038110 0.000000 0.000000 0.000000 0.133537 -0.847956 2.709838 -8.371048 5.278458 12.509668 6.182382 -6.237392 -1.644254 0.000000 0.000000 0.000000 -0.986633 -2.081443 2.296083 1.933543 -0.049909 0.227638 2.159674 -3.080290 -1.882078 -4.192248 -4.817782 -78.809277 15.814758 -33.555671 0.488849 0.000000 0.000000 0.000000 -0.285370 -2.152288 2.475406 2.961546 -5.858454 8.309265 -10.750573 0.835804 -0.275820 8.154624 9.605981 71.812165 -4.983729 21.349467 10.800853 0.000000 0.000000 0.000000 
18.465370 91.375305 21.941124 0.000000 0.000000 0.000000 3.331183 6.454045 -5.252130 9.104153 16.932309 9.490143 13.618588 -7.339375 1.774744 -23.350190 8.083438 -6.453858 -5.786693 -4.585192 -2.254919 0.000000 0.000000 0.000000 3.670285 7.178808 -5.781036 -39.095221 -0.379947 -0.158329 11.770499 -2.898529 -2.968166 4.002859 2.895031 9.591986 2.745209 2.207603 -21.083979 0.000000 0.000000 0.000000 1.888102 13.651068 -4.822472 6.662067 -7.822800 -0.060792 1.202238 -2.690558 2.328387 0.127593 -0.587076 0.051699 0.000000 0.000000 0.000000 -0.012468 -0.947923 2.732470 -8.012144 5.603152 12.769570 7.545290 -5.424911 -2.368426 0.000000 0.000000 0.000000 -1.309333 -2.195451 2.256514 1.895726 -0.058709 -0.160367 2.224157 -2.968159 -1.621950 -4.809499 -5.746858 -78.590445 17.132712 -32.938423 1.138802 0.000000 0.000000 0.000000 -0.623443 -2.277376 2.546910 3.128997 -5.624022 9.004715 -10.842649 0.716297 -0.433125 8.613028 9.841845 71.047341 -5.611382 22.324258 12.043048 0.000000 0.000000 0.000000 
17.828846 90.596138 24.953922 0.000000 0.000000 0.000000 3.479294 7.046759 -4.715934 10.588428 17.494035 10.529076 13.982692 -8.640905 0.879919 -23.126559 8.128428 -8.401881 -8.241963 -4.949633 -1.406785 0.000000 0.000000 0.000000 3.843612 8.007555 -5.112561 -40.132627 -0.078719 -0.753867 12.930675 -3.487409 -2.343501 4.160861 2.193382 8.716155 2.690305 2.319302 -19.552736 0.000000 0.000000 0.000000 2.153914 13.944127 -4.028468 7.021166 -8.379294 -0.400391 0.772402 -2.792821 2.229495 0.138528 -0.646668 0.080328 0.000000 0.000000 0.000000 -0.273272 -1.029448 2.642350 -7.640740 5.996823 12.802635 9.101533 -4.711499 -3.201475 0.000000 0.000000 0.000000 -1.702285 -2.279691 2.114938 1.887262 0.045043 -0.618887 2.357971 -2.868727 -1.266468 -5.438862 -6.543511 -78.421855 18.475305 -32.185979 1.830150 0.000000 0.000000 0.000000 -1.003555 -2.385812 2.513003 3.324188 -5.464594 9.607704 -10.945569 0.448942 -0.484661 8.614139 10.473088 70.089974 -5.866552 22.536067 13.023482 0.000000 0.000000 0.000000 
